# xmcd
#
# Track frame offsets: 
#        183
#        13320
#        24828
#        42108
#        58143
#        71688
#        86713
#        100700
#        117423
#        139968
#        164248
#        184113
#        214615
#
# Disc length: 2926 seconds
#
# Revision: 0
# Processed by: cddbd v1.4PL0 Copyright (c) Steve Scherf et al.
# Submitted via: ExactAudioCopy v0.90b4
#
DISCID=bb0b6c0d
DTITLE=Various Artist - Got Harp If You Want It
DYEAR=2001
DGENRE=Blues
TTITLE0=Rick Estrin - That's That
TTITLE1=Rick Estrin - Don't Boss Me
TTITLE2=Bombshell Baby - Mark Hummel
TTITLE3=Charlie Musselwhite - Sundown Blues
TTITLE4=Charlie Musselwhite - Keep On Rubbin'
TTITLE5=Dave Welhausen - Mojo Man
TTITLE6=Paul Durkett - Steady
TTITLE7=William Clarke - Give Me Back That Wig
TTITLE8=Charlie Musselwhite - Highway 51
TTITLE9=Andy Just - My Babe
TTITLE10=Mark Ford - Summertime
TTITLE11=Ralph Shine - Temperature
TTITLE12=Ralph Shine - Getting Back On The S
EXTD=
EXTT0=
EXTT1=
EXTT2=
EXTT3=
EXTT4=
EXTT5=
EXTT6=
EXTT7=
EXTT8=
EXTT9=
EXTT10=
EXTT11=
EXTT12=
PLAYORDER=
